<svg id="Layer_1" data-name="Layer 1" xmlns="http://www.w3.org/2000/svg" viewBox="0 0 787.14 581.17"><defs><style>.cls-1{fill:#fff;}</style></defs><title>hamburger</title><path class="cls-1" d="M933.57,610c-73,0-111.68-11.78-145.77-22.17C756.43,578.26,729.33,570,671.19,570S586,578.26,554.58,587.83C520.49,598.22,481.86,610,408.81,610S297.13,598.22,263,587.83C231.67,578.26,204.57,570,146.43,570V470c73,0,111.68,11.78,145.77,22.17C323.57,501.74,350.67,510,408.81,510s85.24-8.26,116.61-17.83C559.5,481.78,598.14,470,671.19,470S782.87,481.78,817,492.17C848.33,501.74,875.43,510,933.57,510V610Z" transform="translate(-146.43 -249.41)"/><path class="cls-1" d="M933.57,389.41c-73,0-111.68-11.78-145.77-22.17-31.37-9.57-58.47-17.83-116.61-17.83S586,357.68,554.58,367.24c-34.09,10.39-72.72,22.17-145.77,22.17S297.13,377.63,263,367.24c-31.37-9.57-58.47-17.83-116.61-17.83v-100c73,0,111.68,11.78,145.77,22.17,31.37,9.57,58.47,17.83,116.61,17.83s85.24-8.26,116.61-17.83c34.09-10.39,72.72-22.17,145.77-22.17S782.87,261.19,817,271.59c31.37,9.57,58.47,17.83,116.61,17.83v100Z" transform="translate(-146.43 -249.41)"/><path class="cls-1" d="M933.57,830.58c-73,0-111.68-11.78-145.77-22.17-31.37-9.57-58.47-17.83-116.61-17.83S586,798.84,554.58,808.41c-34.09,10.39-72.72,22.17-145.77,22.17S297.13,818.8,263,808.41c-31.37-9.57-58.47-17.83-116.61-17.83v-100c73,0,111.68,11.78,145.77,22.17,31.37,9.57,58.47,17.83,116.61,17.83s85.24-8.26,116.61-17.83c34.09-10.39,72.72-22.17,145.77-22.17S782.87,702.36,817,712.76c31.37,9.57,58.47,17.83,116.61,17.83v100Z" transform="translate(-146.43 -249.41)"/></svg>